<mxfile host="app.diagrams.net" modified="2024-02-07T22:56:15.548Z" agent="Mozilla/5.0 (Windows NT 10.0; Win64; x64) AppleWebKit/537.36 (KHTML, like Gecko) Chrome/121.0.0.0 Safari/537.36" version="23.1.2" etag="shJBu01SgNAMNxfl-y78" type="github">
  <diagram name="PÃ¡gina-1" id="j5jB6UP9YWE6lfOnG-GL">
    <mxGraphModel>
      <root>
        <mxCell id="0" />
        <mxCell id="1" parent="0" />
      </root>
    </mxGraphModel>
  </diagram>
</mxfile>
